<svg width="60%" height="60%" viewBox="0 0 73 73" fill="none" xmlns="http://www.w3.org/2000/svg">
<path d="M67.9219 0.00166658C67.7728 0.0063772 67.6242 0.0194185 67.4766 0.0407291H48C47.47 0.0332329 46.9437 0.131158 46.4518 0.328813C45.96 0.526468 45.5123 0.819911 45.1348 1.19209C44.7573 1.56427 44.4576 2.00776 44.253 2.49679C44.0484 2.98581 43.943 3.51063 43.943 4.04073C43.943 4.57083 44.0484 5.09564 44.253 5.58467C44.4576 6.0737 44.7573 6.51719 45.1348 6.88937C45.5123 7.26155 45.96 7.55499 46.4518 7.75265C46.9437 7.9503 47.47 8.04823 48 8.04073H58.3438L21.1719 45.2126C20.788 45.5812 20.4815 46.0227 20.2704 46.5112C20.0592 46.9997 19.9477 47.5254 19.9423 48.0576C19.9368 48.5897 20.0377 49.1176 20.2388 49.6104C20.44 50.1031 20.7374 50.5507 21.1137 50.927C21.4901 51.3033 21.9377 51.6008 22.4304 51.8019C22.9231 52.0031 23.451 52.1039 23.9831 52.0985C24.5153 52.0931 25.041 51.9815 25.5296 51.7704C26.0181 51.5592 26.4595 51.2527 26.8281 50.8689L64 13.697V24.0407C63.9925 24.5708 64.0904 25.097 64.2881 25.5889C64.4857 26.0808 64.7792 26.5285 65.1514 26.9059C65.5235 27.2834 65.967 27.5832 66.4561 27.7878C66.9451 27.9923 67.4699 28.0977 68 28.0977C68.5301 28.0977 69.0549 27.9923 69.5439 27.7878C70.033 27.5832 70.4765 27.2834 70.8486 26.9059C71.2208 26.5285 71.5143 26.0808 71.7119 25.5889C71.9096 25.097 72.0075 24.5708 72 24.0407V4.54854C72.0797 3.97264 72.0328 3.3863 71.8628 2.83034C71.6927 2.27438 71.4036 1.76217 71.0154 1.32937C70.6272 0.896563 70.1493 0.553572 69.6151 0.324276C69.0808 0.0949788 68.503 -0.0151127 67.9219 0.00166658ZM8 0.0407291C3.62775 0.0407291 0 3.66848 0 8.04073V64.0407C0 68.413 3.62775 72.0407 8 72.0407H64C68.3723 72.0407 72 68.413 72 64.0407V40.0407C72.0075 39.5107 71.9096 38.9844 71.7119 38.4926C71.5143 38.0007 71.2208 37.553 70.8486 37.1755C70.4765 36.798 70.033 36.4983 69.5439 36.2937C69.0549 36.0891 68.5301 35.9838 68 35.9838C67.4699 35.9838 66.9451 36.0891 66.4561 36.2937C65.967 36.4983 65.5235 36.798 65.1514 37.1755C64.7792 37.553 64.4857 38.0007 64.2881 38.4926C64.0904 38.9844 63.9925 39.5107 64 40.0407V64.0407H8V8.04073H32C32.53 8.04823 33.0563 7.9503 33.5482 7.75265C34.04 7.55499 34.4877 7.26155 34.8652 6.88937C35.2427 6.51719 35.5424 6.0737 35.747 5.58467C35.9516 5.09564 36.057 4.57083 36.057 4.04073C36.057 3.51063 35.9516 2.98581 35.747 2.49679C35.5424 2.00776 35.2427 1.56427 34.8652 1.19209C34.4877 0.819911 34.04 0.526468 33.5482 0.328813C33.0563 0.131158 32.53 0.0332329 32 0.0407291H8Z" fill="black"/>
</svg>
