<svg width="100" height="100" viewBox="0 0 100 100" fill="none" xmlns="http://www.w3.org/2000/svg">
<path d="M94.2865 0.00231338C94.0796 0.00885222 93.8732 0.0269548 93.6684 0.0565362H66.6317C65.896 0.0461307 65.1654 0.182061 64.4826 0.456427C63.7998 0.730792 63.1784 1.13812 62.6544 1.65474C62.1304 2.17136 61.7143 2.78697 61.4303 3.4658C61.1463 4.14462 61 4.87312 61 5.60895C61 6.34479 61.1463 7.07328 61.4303 7.7521C61.7143 8.43093 62.1304 9.04654 62.6544 9.56316C63.1784 10.0798 63.7998 10.4871 64.4826 10.7615C65.1654 11.0358 65.896 11.1718 66.6317 11.1614H80.9905L29.39 62.7598C28.8571 63.2714 28.4316 63.8842 28.1385 64.5623C27.8454 65.2404 27.6906 65.9702 27.6831 66.7089C27.6755 67.4476 27.8155 68.1804 28.0947 68.8643C28.374 69.5482 28.7869 70.1696 29.3093 70.692C29.8317 71.2143 30.453 71.6272 31.137 71.9064C31.8209 72.1857 32.5537 72.3256 33.2925 72.3181C34.0312 72.3106 34.761 72.1557 35.4391 71.8627C36.1173 71.5696 36.7301 71.1441 37.2418 70.6112L88.8423 19.0128V33.371C88.8319 34.1068 88.9679 34.8373 89.2422 35.52C89.5166 36.2028 89.924 36.8243 90.4406 37.3482C90.9572 37.8722 91.5729 38.2883 92.2517 38.5723C92.9306 38.8563 93.6591 39.0025 94.395 39.0025C95.1308 39.0025 95.8594 38.8563 96.5382 38.5723C97.2171 38.2883 97.8327 37.8722 98.3493 37.3482C98.866 36.8243 99.2733 36.2028 99.5477 35.52C99.8221 34.8373 99.958 34.1068 99.9476 33.371V6.31385C100.058 5.51444 99.9932 4.70054 99.7571 3.92881C99.5211 3.15708 99.1197 2.44607 98.5808 1.8453C98.0419 1.24452 97.3786 0.768416 96.637 0.450128C95.8953 0.13184 95.0932 -0.020978 94.2865 0.00231338ZM11.1053 0.0565362C5.0359 0.0565362 0 5.09223 0 11.1614V88.8952C0 94.9643 5.0359 100 11.1053 100H88.8423C94.9117 100 99.9476 94.9643 99.9476 88.8952V55.5807C99.958 54.8449 99.8221 54.1144 99.5477 53.4317C99.2733 52.7489 98.866 52.1275 98.3493 51.6035C97.8327 51.0795 97.2171 50.6634 96.5382 50.3794C95.8594 50.0954 95.1308 49.9492 94.395 49.9492C93.6591 49.9492 92.9306 50.0954 92.2517 50.3794C91.5729 50.6634 90.9572 51.0795 90.4406 51.6035C89.924 52.1275 89.5166 52.7489 89.2422 53.4317C88.9679 54.1144 88.8319 54.8449 88.8423 55.5807V88.8952H11.1053V11.1614H44.4212C45.157 11.1718 45.8875 11.0358 46.5703 10.7615C47.2531 10.4871 47.8745 10.0798 48.3985 9.56316C48.9225 9.04654 49.3386 8.43093 49.6226 7.7521C49.9066 7.07328 50.0529 6.34479 50.0529 5.60895C50.0529 4.87312 49.9066 4.14462 49.6226 3.4658C49.3386 2.78697 48.9225 2.17136 48.3985 1.65474C47.8745 1.13812 47.2531 0.730792 46.5703 0.456427C45.8875 0.182061 45.157 0.0461307 44.4212 0.0565362H11.1053Z" fill="black"/>
</svg>
