<svg width="100" height="100" viewBox="0 0 100 100" fill="none" xmlns="http://www.w3.org/2000/svg">
<path d="M50 0C22.3745 0 0 22.7157 0 50.7625C0 74.6187 16.1234 94.4183 37.8766 100C37.6255 99.3649 37.5021 98.475 37.5021 97.5893V88.9575H31.2511C27.8766 88.9575 24.7489 87.4368 23.3745 84.6416C21.7489 81.5959 21.4979 76.8998 17.3745 73.9793C16.1234 72.9641 17.1234 71.9488 18.4979 72.0741C21.1234 72.8345 23.2468 74.6144 25.2468 77.2757C27.2468 79.9412 28.1234 80.5763 31.8723 80.5763C33.6213 80.5763 36.3702 80.451 38.8723 80.0665C40.2468 76.511 42.6213 73.34 45.4979 71.8192C28.7489 69.7887 20.7489 61.4118 20.7489 49.9892C20.7489 45.0382 22.8723 40.3422 26.3745 36.2812C25.2511 32.3454 23.7489 24.2234 26.8766 21.0524C34.3787 21.0524 38.8766 26.0034 40 27.2692C43.7489 25.9991 47.8766 25.2387 52.1234 25.2387C56.4979 25.2387 60.4979 25.9991 64.2468 27.2692C65.3702 25.9991 69.8723 21.0524 77.3702 21.0524C80.3702 24.0982 78.9957 32.3454 77.7447 36.2812C81.2468 40.2169 83.2468 45.0382 83.2468 49.9892C83.2468 61.4118 75.3702 69.7887 58.7489 71.5644C63.3745 73.975 66.6255 80.8269 66.6255 85.9031V97.464C66.6255 97.8442 66.5021 98.2244 66.5021 98.6046C86 91.7527 100 72.9727 100 50.7625C100 22.7157 77.6255 0 50 0Z" fill="#000000"/>
</svg>
